<svg width="152" height="23" viewBox="0 0 152 23" fill="none" xmlns="http://www.w3.org/2000/svg">
<rect width="152" height="23" fill="black" fill-opacity="0"/>
<path d="M0.767191 1.16163C0.744947 1.18269 0.725925 1.20602 0.710773 1.23129C0.703358 1.24393 0.696264 1.25722 0.690461 1.27115C0.671118 1.31457 0.659514 1.36317 0.652421 1.41729C0.647585 1.44904 0.645331 1.48274 0.643719 1.51839C0.642429 1.53912 0.641783 1.56084 0.641461 1.58287C0.639849 1.68656 0.644363 1.80547 0.644363 1.93929V11.4255L1.37424 10.5707C3.69317 7.85341 5.25706 4.6096 5.51884 1.0061H1.46967C1.16211 1.0061 0.969328 1.03883 0.846499 1.10493C0.81555 1.12145 0.789436 1.14057 0.767191 1.16163Z" fill="#A4D4D5"/>
<path d="M0.644531 11.6818V20.1803C0.644531 21.0053 0.646466 21.2253 1.06911 21.2843C1.22354 21.3057 1.43276 21.3067 1.72097 21.3067H5.43003C5.08024 17.9316 3.59436 15.1382 1.37377 12.5366L0.644531 11.6818Z" fill="#2A5E87"/>
<path d="M2.18434 10.5711C4.46684 7.89687 5.79797 4.55779 6.07329 1.00647C6.08876 0.806869 6.09875 0.606944 6.11004 0.405724C6.13132 0.0298538 6.44242 0.00457764 6.44242 0.00457764C5.9827 0.0703549 5.56166 0.1721 5.5436 0.578752C5.53748 0.721324 5.52878 0.864219 5.51846 1.00614C5.25636 4.60931 3.69279 7.85346 1.37387 10.5707L0.643984 11.4255V1.93934C0.643984 1.83857 0.641726 1.74686 0.641081 1.66359C0.640759 1.63572 0.640759 1.60883 0.641081 1.58291C0.641404 1.56087 0.64205 1.53916 0.643339 1.51843C0.644951 1.48311 0.647533 1.44908 0.652046 1.41733C0.659139 1.36321 0.671066 1.31461 0.690087 1.27119C0.696212 1.25726 0.702983 1.24398 0.710398 1.23134C0.72555 1.20607 0.744247 1.18306 0.766492 1.16168C0.789059 1.14062 0.81517 1.12149 0.846119 1.10497V1.104L0.236166 1.46302C0.236166 1.46302 0.0543399 1.59846 0.0166208 1.81264C-0.020776 2.02714 0.0166208 11.3529 0.0166208 11.3529V19.3729V20.0235C0.0166208 21.0202 0.934455 21.2837 1.05761 21.2837H1.06825C0.737801 21.2377 0.664294 21.0932 0.648175 20.6392C0.64753 20.6207 0.646562 20.6023 0.645917 20.5831C0.64495 20.5449 0.644628 20.5044 0.643984 20.462C0.643016 20.3764 0.643019 20.2828 0.643019 20.18V11.6815L1.3729 12.5366C3.59382 15.1379 5.07937 17.9313 5.42916 21.306C5.45914 21.5951 5.48106 21.887 5.49428 22.1845C5.51233 22.5914 5.8099 22.7706 5.8099 22.7706C5.8099 22.7706 6.21804 22.9997 6.4853 22.9997L6.29154 22.9398C6.20385 22.887 6.11777 22.7855 6.10907 22.5911C6.09037 22.1582 6.05491 21.7299 6.00494 21.306C5.70867 18.7884 4.86982 16.4353 3.52676 14.3456C3.12345 13.7177 2.67598 13.1137 2.18305 12.5366L1.34389 11.5535L1.61404 11.2373L2.18434 10.5711Z" fill="#34AFD5"/>
<path d="M6.1104 0.40698C5.94502 4.18156 4.59487 7.74746 2.18406 10.572L1.34521 11.5548H16.2243C18.5667 8.41204 20.0765 4.39282 20.0765 0.394343C20.0765 0.113412 19.9972 0 19.7299 0H6.48598C6.4863 0 6.12813 3.86269e-06 6.1104 0.40698Z" fill="#64BFD4"/>
<path d="M6.1104 22.5927C5.94502 18.8184 4.59487 15.3624 2.18406 12.5382L1.34521 11.5551H16.2243C18.5667 14.6981 20.0765 18.6072 20.0765 22.6057C20.0765 22.8869 19.9972 23 19.7299 23H6.48598C6.4863 22.9997 6.12813 22.9997 6.1104 22.5927Z" fill="#368DC4"/>
<path d="M37.6381 12.0126L35.4275 13.8061V17.7605C35.4275 17.9838 35.4794 18.1552 35.5835 18.2734C35.687 18.3924 35.8643 18.4844 36.1151 18.5495V18.8949H31.5356V18.5495C31.7939 18.4773 31.9728 18.3839 32.0734 18.2686C32.174 18.1536 32.2239 17.9841 32.2239 17.7608V5.27061C32.2239 5.05448 32.174 4.88891 32.0734 4.77355C31.9728 4.65885 31.7939 4.56488 31.5356 4.49295V4.14722H36.1151V4.49295C35.8572 4.55743 35.678 4.64913 35.5777 4.76837C35.4775 4.88761 35.4272 5.05448 35.4272 5.27061V10.433L41.4693 5.47637C41.7488 5.24566 41.8884 5.06258 41.8884 4.92552C41.8884 4.71652 41.6802 4.57234 41.2646 4.49327V4.14753H47.2626V4.49327C47.0118 4.5435 46.8325 4.60149 46.7252 4.66565C46.6175 4.73046 46.3061 4.97575 45.7899 5.40087L44.9621 6.09201L39.9722 10.12L45.6287 16.9618C46.1517 17.5959 46.5298 18.0045 46.7632 18.1882C46.996 18.3719 47.2881 18.4922 47.6391 18.5502V18.8956H41.9045V18.5502C42.2846 18.4708 42.4745 18.334 42.4745 18.1393C42.4745 18.0385 42.3027 17.7719 41.9581 17.3396L37.6381 12.0126Z" fill="#201C1D"/>
<path d="M52.8102 8.79277V17.7612C52.8102 17.9841 52.8601 18.1539 52.9607 18.2686C53.0613 18.3839 53.2402 18.4779 53.4981 18.5492V18.8949H49.1875V18.5492C49.4457 18.4776 49.6247 18.3839 49.7249 18.2686C49.8255 18.1539 49.8758 17.9841 49.8758 17.7612V5.27061C49.8758 5.05481 49.8255 4.88891 49.7249 4.77388C49.6247 4.65853 49.4457 4.56456 49.1875 4.49295V4.14722H54.1758V4.49295C53.8676 4.57233 53.7132 4.73759 53.7132 4.99C53.7132 5.16271 53.8137 5.35388 54.0146 5.56256L62.1087 14.0225V5.27061C62.1087 5.05481 62.0591 4.88891 61.9585 4.77388C61.8579 4.65853 61.679 4.56456 61.4208 4.49295V4.14722H65.7317V4.49295C65.4738 4.56488 65.2945 4.65853 65.1943 4.77388C65.0934 4.88891 65.0437 5.05481 65.0437 5.27061V17.7612C65.0437 17.9841 65.0934 18.1539 65.1943 18.2686C65.2945 18.3839 65.4738 18.4779 65.7317 18.5492V18.8949H61.1093V18.5492C61.4101 18.4844 61.5604 18.3298 61.5604 18.0849C61.5604 17.9407 61.3846 17.6886 61.0336 17.3286L52.8102 8.79277Z" fill="#201C1D"/>
<path d="M76.3468 3.88733C78.9065 3.88733 80.9359 4.58268 82.4353 5.97308C84.0202 7.42795 84.8126 9.30795 84.8126 11.6127C84.8126 13.0245 84.4322 14.343 83.6723 15.5672C82.1877 17.9591 79.7531 19.1545 76.3684 19.1545C73.8299 19.1545 71.8111 18.4594 70.3123 17.069C69.5093 16.3273 68.8996 15.4375 68.4838 14.4003C68.1179 13.4856 67.9351 12.5239 67.9351 11.5155C67.9351 10.039 68.3119 8.68842 69.0644 7.4636C70.5058 5.12316 72.9337 3.93075 76.3468 3.88733ZM76.3577 6.39399C74.9586 6.39399 73.7931 6.81133 72.8602 7.64602C71.7553 8.63203 71.2031 9.92328 71.2031 11.5207C71.2031 13.1182 71.7553 14.4101 72.8602 15.3958C73.7931 16.2304 74.966 16.6478 76.379 16.6478C77.7923 16.6478 78.9619 16.2304 79.8872 15.3958C80.4398 14.8993 80.8631 14.2911 81.1571 13.5715C81.4153 12.9309 81.5446 12.2689 81.5446 11.5855C81.5446 9.91648 80.9917 8.60319 79.8869 7.64602C78.9474 6.82591 77.7711 6.40857 76.3577 6.39399Z" fill="#201C1D"/>
<path d="M97.5622 8.50277L94.2075 17.026C94.0137 17.4582 93.9167 17.7323 93.9167 17.847C93.9167 18.1782 94.182 18.4125 94.713 18.5492V18.8949H89.9878V18.5492C90.4681 18.4559 90.7086 18.2109 90.7086 17.8146C90.7086 17.7064 90.6077 17.3863 90.4069 16.8532L86.2004 5.97278C85.9925 5.43231 85.8042 5.0668 85.6356 4.87562C85.4673 4.68477 85.2213 4.55744 84.8989 4.49231V4.14657H90V4.49231C89.5484 4.59308 89.3224 4.80563 89.3224 5.12966C89.3224 5.29556 89.3801 5.53308 89.4945 5.84285L92.3967 13.6473L95.539 5.79943C95.675 5.46114 95.743 5.23788 95.743 5.12966C95.743 4.79883 95.5032 4.58595 95.0231 4.49231V4.14657H100.356V4.49231C99.8683 4.62159 99.6242 4.85619 99.6242 5.19447C99.6242 5.3095 99.6852 5.52595 99.807 5.84285L102.802 13.6473L105.695 5.97246C105.846 5.59043 105.921 5.30593 105.921 5.11864C105.921 4.80175 105.663 4.59275 105.147 4.49198V4.14624H110.193V4.49198C109.834 4.59275 109.587 4.72236 109.451 4.88081C109.314 5.03925 109.135 5.40314 108.913 5.97213L104.707 16.8526C104.506 17.371 104.405 17.7161 104.405 17.8892C104.405 18.2423 104.66 18.4624 105.169 18.5482V18.894H100.382V18.5482C100.883 18.4692 101.134 18.2278 101.134 17.8247C101.134 17.6879 101.023 17.3636 100.801 16.8526L97.5622 8.50277Z" fill="#201C1D"/>
<path d="M115.171 12.9095V17.7715C115.171 17.988 115.223 18.1552 115.326 18.2741C115.43 18.393 115.607 18.4847 115.858 18.5495V18.8952H111.279V18.5495C111.537 18.4779 111.716 18.3839 111.816 18.2692C111.917 18.1542 111.967 17.9883 111.967 17.7718V5.28162C111.967 5.05837 111.917 4.88923 111.816 4.77388C111.716 4.65853 111.537 4.56488 111.279 4.49262V4.14722H120.438C121.506 4.14722 122.353 4.21947 122.98 4.36334C123.607 4.50721 124.161 4.75606 124.641 5.10892C125.136 5.47637 125.522 5.95884 125.802 6.55666C126.081 7.17653 126.222 7.83235 126.222 8.52318C126.222 9.51696 125.956 10.3889 125.426 11.1377C124.967 11.779 124.36 12.2346 123.604 12.5048C122.847 12.7747 121.793 12.9098 120.438 12.9098H115.171V12.9095ZM115.171 10.4787H120.062C121.036 10.4787 121.721 10.3743 122.115 10.165C122.366 10.0283 122.568 9.81021 122.723 9.51114C122.877 9.21238 122.954 8.88285 122.954 8.52253C122.954 8.16967 122.877 7.84337 122.723 7.5443C122.568 7.24554 122.366 7.0278 122.115 6.89074C121.728 6.68174 121.044 6.57741 120.062 6.57741H115.171V10.4787Z" fill="#201C1D"/>
<path d="M128.812 17.7608V5.27061C128.812 5.05448 128.762 4.88891 128.662 4.77388C128.561 4.65853 128.383 4.56456 128.124 4.49295V4.14722H132.704V4.49295C132.446 4.55775 132.267 4.64913 132.166 4.76837C132.066 4.88729 132.016 5.05481 132.016 5.27093V17.7612C132.016 17.9844 132.067 18.1555 132.171 18.2744C132.275 18.393 132.452 18.4847 132.704 18.5502V18.8952H128.124V18.5502C128.382 18.4782 128.561 18.3846 128.662 18.2692C128.762 18.1536 128.812 17.9841 128.812 17.7608Z" fill="#201C1D"/>
<path d="M146.086 15.1352H139.417L138.43 17.2093C138.293 17.498 138.225 17.7245 138.225 17.8904C138.225 18.2077 138.465 18.427 138.944 18.5495V18.8949H134.09V18.5495C134.377 18.4915 134.595 18.3914 134.746 18.2465C134.896 18.103 135.068 17.8217 135.262 17.4041L140.658 6.06997C140.83 5.70998 140.917 5.4216 140.917 5.20547C140.917 4.87464 140.708 4.63649 140.293 4.4923V4.14688H145.496V4.4923C145.073 4.6151 144.862 4.82734 144.862 5.1303C144.862 5.3393 144.929 5.57681 145.066 5.84284L150.656 17.2093C150.892 17.6921 151.1 18.022 151.279 18.1983C151.459 18.3749 151.699 18.4915 152 18.5495V18.8949H146.598V18.5495C147.072 18.4701 147.309 18.2465 147.309 17.8797C147.309 17.7284 147.238 17.5052 147.094 17.2097L146.086 15.1352ZM145.165 13.1149L142.785 7.86118L140.367 13.1149H145.165Z" fill="#201C1D"/>
</svg>
